<mxfile host="app.diagrams.net" modified="2023-06-06T01:35:07.048Z" agent="Mozilla/5.0 (Windows NT 10.0; Win64; x64) AppleWebKit/537.36 (KHTML, like Gecko) Chrome/114.0.0.0 Safari/537.36" version="21.2.9" etag="5Mo8d5uwFgSusQynxvlO" type="github">
  <diagram name="第 1 页" id="nvZ0AfOBZHsbzv7KAqIJ">
    <mxGraphModel>
      <root>
        <mxCell id="0" />
        <mxCell id="1" parent="0" />
      </root>
    </mxGraphModel>
  </diagram>
</mxfile>
